<?xml version="1.0" standalone="no"?>
<!DOCTYPE svg PUBLIC "-//W3C//DTD SVG 20010904//EN"
 "http://www.w3.org/TR/2001/REC-SVG-20010904/DTD/svg10.dtd">
<svg version="1.0" xmlns="http://www.w3.org/2000/svg"
 width="500.000000pt" height="500.000000pt" viewBox="0 0 500.000000 500.000000"
 preserveAspectRatio="xMidYMid meet">
<metadata>
Created by potrace 1.14, written by Peter Selinger 2001-2017
</metadata>
<g transform="translate(0.000000,500.000000) scale(0.100000,-0.100000)"
fill="#000000" stroke="none">
<path d="M0 2500 l0 -2500 2500 0 2500 0 0 2500 0 2500 -2500 0 -2500 0 0
-2500z m2658 -12 c64 -3 67 -4 67 -28 0 -24 -3 -25 -67 -28 l-68 -3 0 -70 0
-70 -27 3 c-27 3 -28 5 -31 71 l-3 67 -259 0 c-175 0 -260 3 -260 10 0 8 533
977 569 1035 3 6 7 -214 9 -487 l2 -497 68 -3z m-928 657 l0 -145 111 0 c109
0 110 0 107 -22 -3 -22 -8 -23 -111 -26 l-108 -3 3 -238 3 -238 28 -41 c34
-52 93 -92 146 -99 35 -5 41 -9 41 -29 0 -29 -15 -30 -89 -8 -63 18 -136 81
-162 139 -17 37 -19 74 -19 448 l0 407 25 0 25 0 0 -145z m-236 99 c19 -18 20
-28 6 -55 -12 -22 -59 -26 -78 -7 -26 26 -1 78 38 78 10 0 26 -7 34 -16z
m1881 -263 c76 -37 147 -111 183 -189 22 -48 26 -71 26 -142 0 -119 -27 -185
-109 -266 -81 -80 -147 -107 -262 -107 -74 -1 -88 2 -156 36 -51 25 -90 54
-121 88 l-46 51 0 -236 0 -236 -25 0 -25 0 0 510 0 510 25 0 c25 0 25 -1 25
-82 l1 -83 22 30 c51 69 132 124 214 145 70 17 179 5 248 -29z m-1887 -333
l-3 -353 -27 -3 -28 -3 0 355 0 356 30 0 30 0 -2 -352z m-428 -976 c0 -26 3
-28 33 -25 50 5 61 -8 62 -73 0 -37 -4 -59 -12 -61 -9 -3 -13 9 -13 40 0 42
-18 77 -39 77 -17 0 -30 -27 -33 -69 -2 -25 -9 -46 -15 -49 -10 -3 -13 20 -13
92 0 79 3 96 15 96 10 0 15 -10 15 -28z m2010 14 c0 -8 -6 -17 -12 -20 -10 -5
-10 -7 0 -12 14 -7 16 -34 3 -34 -6 0 -11 -24 -13 -52 -2 -39 -7 -53 -18 -53
-11 0 -16 14 -18 50 -2 27 -8 56 -14 63 -8 9 -8 16 -1 20 5 4 15 17 22 30 13
24 51 30 51 8z m-2110 -11 c0 -9 -9 -15 -25 -15 -24 0 -25 -2 -25 -76 0 -56
-3 -75 -12 -72 -9 3 -14 30 -16 76 -3 69 -4 72 -27 72 -16 0 -25 6 -25 15 0
12 14 15 65 15 51 0 65 -3 65 -15z m1837 -5 c3 -11 12 -20 19 -20 8 0 14 -7
14 -15 0 -8 -7 -15 -15 -15 -11 0 -15 -11 -15 -40 0 -29 4 -40 15 -40 8 0 15
-7 15 -15 0 -18 -14 -19 -41 -5 -14 8 -19 21 -19 55 0 25 -4 45 -10 45 -5 0
-10 7 -10 15 0 8 5 15 10 15 6 0 10 9 10 20 0 11 5 20 11 20 6 0 13 -9 16 -20z
m-1455 -37 c10 -9 18 -27 18 -40 0 -21 -4 -23 -51 -23 -36 0 -49 -4 -47 -12 7
-19 37 -22 64 -7 33 17 44 1 15 -22 -30 -25 -66 -24 -91 1 -24 24 -26 77 -3
102 20 22 70 23 95 1z m314 6 c8 -7 14 -6 19 1 12 20 64 11 80 -14 21 -31 17
-111 -5 -111 -11 0 -16 14 -18 53 -3 51 -4 53 -30 50 -24 -3 -27 -8 -32 -52
-7 -69 -28 -72 -32 -4 -3 47 -6 53 -27 56 -30 5 -41 -12 -41 -66 0 -30 -4 -42
-12 -40 -8 3 -14 29 -16 70 l-3 65 53 1 c29 0 58 -4 64 -9z m298 -5 c59 -59
-10 -153 -83 -113 -33 19 -41 81 -15 110 21 23 76 25 98 3z m203 4 c10 -8 17
-8 25 0 16 16 61 15 76 0 17 -17 16 -131 0 -126 -7 3 -15 27 -18 54 -5 44 -7
49 -30 49 -23 0 -25 -5 -30 -50 -4 -36 -9 -50 -20 -50 -11 0 -16 14 -18 53 -3
51 -4 53 -30 50 -25 -3 -27 -7 -30 -55 -2 -38 -7 -53 -18 -53 -11 0 -14 15
-14 69 l0 68 47 1 c26 1 53 -4 60 -10z m309 -13 c25 -38 12 -55 -41 -55 -25 0
-45 -5 -45 -10 0 -17 31 -24 51 -12 10 7 26 12 34 12 28 0 -2 -38 -35 -45 -58
-13 -106 46 -79 98 16 30 28 37 66 37 24 0 37 -7 49 -25z m201 13 c20 -16 18
-128 -2 -128 -11 0 -15 12 -15 48 0 44 -12 72 -31 72 -21 0 -39 -35 -39 -77 0
-31 -4 -43 -12 -41 -8 3 -14 29 -16 70 l-3 65 53 1 c29 0 58 -4 65 -10z m588
-8 c26 -29 24 -79 -4 -102 -47 -38 -114 -8 -114 50 0 42 28 72 68 72 19 0 39
-8 50 -20z m175 5 c0 -7 -11 -16 -24 -19 -21 -5 -25 -13 -28 -53 -2 -26 -9
-48 -15 -51 -10 -3 -13 15 -13 66 l0 70 40 0 c27 1 40 -4 40 -13z m172 -2 c10
-9 18 -27 18 -40 0 -21 -4 -23 -51 -23 -36 0 -49 -4 -47 -12 6 -16 58 -23 58
-9 0 6 9 11 20 11 26 0 25 -15 -2 -34 -50 -35 -108 -7 -108 51 0 20 7 45 17
55 20 22 70 23 95 1z m128 -28 c7 -25 16 -45 19 -45 4 0 13 19 21 42 9 25 22
44 33 46 16 3 15 -3 -8 -64 -14 -37 -28 -70 -31 -73 -13 -13 -38 20 -60 77
-22 58 -22 62 -5 62 13 0 22 -13 31 -45z m264 29 c9 -8 16 -26 16 -40 0 -22
-4 -24 -50 -24 -40 0 -48 -3 -44 -15 7 -18 37 -19 64 -3 29 18 39 -1 11 -23
-67 -54 -146 27 -95 99 18 26 74 30 98 6z m176 1 c0 -7 -11 -16 -24 -19 -21
-5 -25 -13 -28 -53 -2 -26 -9 -48 -15 -51 -10 -3 -13 15 -13 66 l0 70 40 0
c27 1 40 -4 40 -13z"/>
<path d="M2309 2894 c-118 -212 -215 -390 -217 -395 -2 -5 87 -9 217 -9 l221
0 0 395 c0 217 -1 395 -3 395 -2 0 -100 -174 -218 -386z"/>
<path d="M3119 2957 c-88 -33 -165 -103 -202 -186 -30 -65 -30 -187 0 -253 30
-66 96 -133 162 -165 47 -24 68 -28 136 -28 98 1 154 23 219 88 75 76 91 116
91 232 0 85 -3 106 -23 143 -60 112 -153 174 -272 179 -47 2 -89 -2 -111 -10z"/>
<path d="M1272 1618 c-20 -20 -14 -28 23 -28 19 0 35 4 35 8 0 12 -22 32 -35
32 -6 0 -16 -5 -23 -12z"/>
<path d="M1877 1614 c-12 -12 -8 -51 8 -64 26 -22 50 -8 50 30 0 30 -4 35 -25
38 -14 2 -29 0 -33 -4z"/>
<path d="M2393 1623 c-28 -11 -13 -33 22 -33 37 0 43 8 23 28 -13 13 -24 14
-45 5z"/>
<path d="M3177 1614 c-15 -15 -7 -63 12 -69 33 -10 52 5 49 39 -2 25 -8 32
-28 34 -14 2 -29 0 -33 -4z"/>
<path d="M3532 1618 c-20 -20 -14 -28 23 -28 19 0 35 4 35 8 0 12 -22 32 -35
32 -6 0 -16 -5 -23 -12z"/>
<path d="M3922 1618 c-20 -20 -14 -28 23 -28 37 0 49 22 19 34 -22 8 -28 8
-42 -6z"/>
</g>
</svg>
